<svg xmlns="http://www.w3.org/2000/svg" xmlns:xlink="http://www.w3.org/1999/xlink" width="46" height="46" viewBox="0 0 46 46">
  <defs>
    <clipPath id="clip-path">
      <rect id="矩形_1" data-name="矩形 1" width="46" height="46" transform="translate(187 246)" fill="#fff" opacity="0"/>
    </clipPath>
  </defs>
  <g id="apsheb_icon" transform="translate(-187 -246)">
    <path id="apsheb_icon-2" data-name="apsheb_icon" d="M1240,350.835a3.17,3.17,0,0,0,3.17,3.165h31.66a3.168,3.168,0,0,0,3.17-3.165v-8.71a3.175,3.175,0,0,0-3.17-3.169h-13.5v-3.31a1.977,1.977,0,0,0-3.95,0v3.31h-14.21a3.175,3.175,0,0,0-3.17,3.169v8.71Zm3.96-4.355a1.979,1.979,0,1,1,1.98,1.93,1.979,1.979,0,0,1-1.98-1.93Zm7.05,0a2.045,2.045,0,0,1,.86-1.759,1.575,1.575,0,0,1,1.77,0,2.06,2.06,0,0,1,.86,1.755,1.754,1.754,0,1,1-3.48,0h-.01Zm8.34-19.144a8.317,8.317,0,0,0-8.31,8.31,1.98,1.98,0,1,0,3.96,0,4.355,4.355,0,0,1,8.71,0,1.982,1.982,0,0,0,3.96,0,8.315,8.315,0,0,0-8.32-8.31h0Zm0-6.335a14.644,14.644,0,0,0-14.64,14.645,1.982,1.982,0,0,0,3.96,0,10.686,10.686,0,1,1,21.372,0,1.98,1.98,0,0,0,3.958,0A14.644,14.644,0,0,0,1259.348,321h0Z" transform="translate(-1049 -68)" fill="#1bacff" fill-rule="evenodd"/>
  </g>
</svg>
