<svg xmlns="http://www.w3.org/2000/svg" xmlns:xlink="http://www.w3.org/1999/xlink" width="40" height="40" viewBox="0 0 40 40">
  <defs>
    <clipPath id="clip-path">
      <rect id="矩形_14" data-name="矩形 14" width="40" height="40" transform="translate(230 69)" fill="none" opacity="0"/>
    </clipPath>
  </defs>
  <g id="co_icon" transform="translate(-230 -69)">
    <path id="co_icon-2" data-name="co_icon" d="M628.168,643.339A7.693,7.693,0,0,1,623.061,648H593.289c-3.731-1.319-7.021-9.476-.84-14.282a7.127,7.127,0,0,1,4-1.483h0c3.575-16.054,20.34-13.962,21.964-1.983l1.2.042a9.488,9.488,0,0,1,8.555,13.045Zm-10.881.45c1.222-1.213,1.2-2.716,1.213-4.817s0-3.622-1.213-4.817a4.76,4.76,0,0,0-6.586,0c-1.222,1.222-1.2,2.716-1.2,4.817s0,3.622,1.2,4.817a4.74,4.74,0,0,0,6.586,0Zm-15.406-1.4c-.456-.507-.593-1.087-.593-3.414s.137-2.9.593-3.4a1.957,1.957,0,0,1,1.523-.634,2.012,2.012,0,0,1,2.053,1.711h2.408a4.269,4.269,0,0,0-4.47-3.812,4.467,4.467,0,0,0-3.284,1.322c-1.231,1.222-1.194,2.716-1.194,4.817s0,3.622,1.194,4.817a4.479,4.479,0,0,0,3.284,1.368,4.288,4.288,0,0,0,4.47-3.821h-2.408a2.114,2.114,0,0,1-3.576,1.086v-.036ZM614,634.934a2.03,2.03,0,0,1,1.523.643c.456.516.593,1.068.593,3.4s-.137,2.889-.593,3.4a2.144,2.144,0,0,1-3.064,0c-.466-.507-.584-1.069-.584-3.4s.128-2.879.584-3.4a2.012,2.012,0,0,1,1.541-.643Zm6-6.167c-.045-4.618-4.276-6.694-4.413-6.775,4.1-6.547,9.139-.731,8.947,2.166,4.141-1.3,6.253,5.565,2.541,7.285C625.11,628.1,620,628.767,620,628.767Zm.384.381" transform="translate(-359 -545)" fill="#abcdf6" fill-rule="evenodd"/>
  </g>
</svg>
