<svg xmlns="http://www.w3.org/2000/svg" xmlns:xlink="http://www.w3.org/1999/xlink" width="46" height="46" viewBox="0 0 46 46">
  <defs>
    <clipPath id="clip-path">
      <rect id="矩形_2" data-name="矩形 2" width="46" height="46" transform="translate(299 189)" fill="#fff" opacity="0"/>
    </clipPath>
  </defs>
  <g id="fanglmk_icon" transform="translate(-299 -189)">
    <path id="fanglmk_icon-2" data-name="fanglmk_icon" d="M1029.46,321.956a36.694,36.694,0,0,0-28.92,0,2.44,2.44,0,0,0-1.515,2.308v15.5c0,8.165,11.185,15.012,14.935,16.908a2.3,2.3,0,0,0,2.08,0c3.75-1.9,14.93-8.743,14.93-16.908v-15.5a2.429,2.429,0,0,0-1.51-2.3h0Zm-6.89,12.9-10.06,14.274a.479.479,0,0,1-.29.223.492.492,0,0,1-.37-.046l-.04-.018a.522.522,0,0,1-.21-.565c.74-2.731,1.47-5.462,2.24-8.2a2.133,2.133,0,0,0,.21-1.165,2.85,2.85,0,0,0-1.54-.1h-4.08a.542.542,0,0,1-.37-.184.5.5,0,0,1-.13-.387.414.414,0,0,1,.06-.215l10.07-14.276a.477.477,0,0,1,.29-.222.5.5,0,0,1,.37.046l.03.017a.519.519,0,0,1,.22.571l-1.24,4.638c-.29,1.083-.57,2.125-.87,3.191a3.941,3.941,0,0,0-.35,1.548,7.44,7.44,0,0,0,2.86.067h2.78a.565.565,0,0,1,.37.17.5.5,0,0,1,.13.37h0a.457.457,0,0,1-.08.251h0Z" transform="translate(-693.024 -125.987)" fill="#1bacff" fill-rule="evenodd"/>
  </g>
</svg>
