<svg xmlns="http://www.w3.org/2000/svg" xmlns:xlink="http://www.w3.org/1999/xlink" width="46" height="46" viewBox="0 0 46 46">
  <defs>
    <clipPath id="clip-path">
      <rect id="矩形_4" data-name="矩形 4" width="46" height="46" transform="translate(307 227)" fill="#fff" opacity="0"/>
    </clipPath>
  </defs>
  <g id="guangbyz_icon" transform="translate(-307 -227)">
    <path id="guangbyz_icon-2" data-name="guangbyz_icon" d="M667.983,338.344c-.019-9.1-2.811-17.214-5.941-17.269-5.314-.091-1.869,11.929-27.967,11.483-2.257-.039-4.076,2.9-4.07,5.128s1.836,5.236,4.091,5.277c.4,0,1.782.127,1.782.127.582,2.451,2.484,1.969,2.5,3.369.011,1.678.031,5.336.041,6.581s.623,2.655,1.488,2.685,3.8.152,4.933.2a1.529,1.529,0,0,0,1.717-1.537c-.008-.87-1.221-1.656-1.231-2.68s-.053-4.31-.031-5.337c.025-1.384,1.445-1.911,2.983-1.439,10.573,3.286,9.795,10.4,13.837,10.484,3.127.044,5.889-7.98,5.872-17.069h0Zm-6.427,11.967c-.694-.011-3.333-4.891-3.35-11.959s2.624-12.387,3.316-12.377,2.961,5.506,2.975,12.573-2.245,11.778-2.941,11.763h0Zm0,0" transform="translate(-319.005 -89.074)" fill="#1bacff" fill-rule="evenodd"/>
  </g>
</svg>
