<svg xmlns="http://www.w3.org/2000/svg" width="18" height="18" viewBox="0 0 18 18">
  <path id="home_click_icon" class="cls-1" d="M367.723,115.307a1,1,0,0,0-1.446,0L358,123.783V125.1h2.571v6.707A1.18,1.18,0,0,0,361.737,133h10.526a1.18,1.18,0,0,0,1.166-1.193V125.1H376v-1.317ZM365.929,131.5v-3.428h2.142V131.5h-2.142Zm7.5-7.9h-1.5v7.9h-2.358v-3.8a1.126,1.126,0,0,0-1.127-1.127h-2.888a1.126,1.126,0,0,0-1.127,1.127v3.8h-2.358v-7.9h-1.8L367,116.713l6.724,6.887h-0.3Z" transform="translate(-358 -115)"/>
</svg>
