<svg xmlns="http://www.w3.org/2000/svg" xmlns:xlink="http://www.w3.org/1999/xlink" width="46" height="46" viewBox="0 0 46 46">
  <defs>
    <clipPath id="clip-path">
      <rect id="矩形_5" data-name="矩形 5" width="46" height="46" transform="translate(388 250)" fill="#fff" opacity="0"/>
    </clipPath>
  </defs>
  <g id="huanjcgq_icon" transform="translate(-388 -250)" >
    <path id="huanjcgq_icon-2" data-name="huanjcgq_icon" d="M299.19,437.719h0a2,2,0,0,0-1.548-.729,2.045,2.045,0,0,0-1.359.521c-.021,0-.021.021-.042.021a1.935,1.935,0,0,0-.147,2.565,19.294,19.294,0,0,1,0,23.689,1.989,1.989,0,0,0,.147,2.565l.021.021.042.042a1.971,1.971,0,0,0,1.38.584,2.014,2.014,0,0,0,1.548-.709l.021-.021a23.79,23.79,0,0,0-.063-28.549Zm-.008-.008Zm-4.656,23.656a1.929,1.929,0,0,1-2.971.25l-.042-.041a1.943,1.943,0,0,1-.209-2.44,12.71,12.71,0,0,0-.021-14.285,1.968,1.968,0,0,1,.147-2.4l.042-.042.083-.083a1.938,1.938,0,0,1,1.381-.584,1.88,1.88,0,0,1,1.59.855,16.7,16.7,0,0,1,0,18.77Zm-24.578,2.44a1.962,1.962,0,0,1-.189,2.565l-.041.042a1.9,1.9,0,0,1-1.381.584,2.014,2.014,0,0,1-1.548-.709l-.021-.021A22.635,22.635,0,0,1,262.02,452a22.911,22.911,0,0,1,4.79-14.264,1.985,1.985,0,0,1,1.548-.75,2.055,2.055,0,0,1,1.38.542l.042.041a1.96,1.96,0,0,1,.147,2.545A19.265,19.265,0,0,0,269.948,463.807Zm4.769-19a12.674,12.674,0,0,0-.021,14.284.021.021,0,0,1,.021.021,1.968,1.968,0,0,1-.209,2.44l-.042.042a1.893,1.893,0,0,1-2.95-.272,16.741,16.741,0,0,1,0-18.747,1.9,1.9,0,0,1,1.569-.834,1.92,1.92,0,0,1,1.36.563l.084.083a1.913,1.913,0,0,1,.188,2.423Zm12.7,2.689a6.277,6.277,0,1,1-4.435-1.834,6.226,6.226,0,0,1,4.435,1.834Z" transform="translate(127.983 -178.986)" fill="#1bacff" fill-rule="evenodd"/>
  </g>
</svg>
