<svg xmlns="http://www.w3.org/2000/svg" xmlns:xlink="http://www.w3.org/1999/xlink" width="40" height="40" viewBox="0 0 40 40">
  <defs>
    <clipPath id="clip-path">
      <rect id="_1" data-name="1" width="40" height="40" transform="translate(90 204)" fill="#fff" opacity="0"/>
    </clipPath>
  </defs>
  <g id="pm10_icon" transform="translate(-90 -204)" >
    <path id="_2" data-name="2" d="M30.242,17.321A11.9,11.9,0,0,1,37,28.112,11.776,11.776,0,0,1,25.764,39.99L8.838,40h0A9.081,9.081,0,0,1,7.164,22.046,10.616,10.616,0,0,1,6.446,19.9H1.527V19.9C.9,19.861.406,19.158.406,18.293s.5-1.568,1.121-1.6v0H6.248A10.757,10.757,0,0,1,8.4,11.159L4.913,7.349l.005-.005A1.489,1.489,0,0,1,5.3,5.413a1.416,1.416,0,0,1,1.913-.256l0,0,.031.034h0v0L10.643,8.9a12.365,12.365,0,0,1,5.6-2.367V1.145h.006A1.442,1.442,0,0,1,17.821,0a1.442,1.442,0,0,1,1.57,1.145h0V6.436a12.417,12.417,0,0,1,6.455,2.5l3.746-3.748.005.005a1.415,1.415,0,0,1,1.9.343,1.492,1.492,0,0,1,.3,1.947l0,0-.033.033h0L28.085,11.2a10.72,10.72,0,0,1,2.157,6.121ZM20.975,29.586l1.7-.33v5.63h1.469V27.945H23.056l-2.081.421Zm-9.01,5.3h1.48v-5.46h.06l1.32,4.15h1.52l1.34-4.15h.06v5.46h1.5V27.945h-2.4l-1.2,3.91h-.06l-1.15-3.91h-2.47Zm-6.34-6.941v6.941h1.52v-2.14h.85a5.429,5.429,0,0,0,1.25-.125,1.964,1.964,0,0,0,.85-.415,1.666,1.666,0,0,0,.481-.755,3.806,3.806,0,0,0,.149-1.145,3.745,3.745,0,0,0-.135-1.076,1.574,1.574,0,0,0-.45-.729,1.949,1.949,0,0,0-.84-.42,5.326,5.326,0,0,0-1.305-.136Zm12.6-19.321c-5.507,0-9.971,4.036-9.971,9.014A8.284,8.284,0,0,0,9.44,21.9a8.728,8.728,0,0,1,5.029,2.01,11.656,11.656,0,0,1,10.889-7.682,11.426,11.426,0,0,1,2.766.341C27.537,12.093,23.331,8.624,18.225,8.624Zm10.64,19.222a3.29,3.29,0,0,0-1.04.155,1.718,1.718,0,0,0-.8.555,2.81,2.81,0,0,0-.511,1.089,8.771,8.771,0,0,0,0,3.526,2.864,2.864,0,0,0,.511,1.1,1.707,1.707,0,0,0,.8.56,3.349,3.349,0,0,0,1.04.154,3.3,3.3,0,0,0,1.035-.154,1.713,1.713,0,0,0,.8-.56,2.819,2.819,0,0,0,.505-1.1,8.968,8.968,0,0,0,0-3.526,2.765,2.765,0,0,0-.505-1.089A1.724,1.724,0,0,0,29.9,28,3.241,3.241,0,0,0,28.865,27.846Zm.83,5.434a.757.757,0,0,1-.335.356,1.287,1.287,0,0,1-.99,0,.757.757,0,0,1-.335-.356,2.246,2.246,0,0,1-.191-.7,9.315,9.315,0,0,1-.059-1.16,9.2,9.2,0,0,1,.059-1.15,2.374,2.374,0,0,1,.191-.715.753.753,0,0,1,.335-.365,1.275,1.275,0,0,1,.99,0,.753.753,0,0,1,.335.365,2.377,2.377,0,0,1,.19.715,8.981,8.981,0,0,1,.06,1.15,9.1,9.1,0,0,1-.06,1.16A2.248,2.248,0,0,1,29.695,33.28Zm-20.825-2a.936.936,0,0,1-.425.2,3.2,3.2,0,0,1-.65.054h-.65v-2.38H7.8a2.96,2.96,0,0,1,.645.061,1,1,0,0,1,.43.2.77.77,0,0,1,.235.37,1.942,1.942,0,0,1,.07.561,1.964,1.964,0,0,1-.07.575A.757.757,0,0,1,8.87,31.275Z" transform="translate(91.5 204)" fill="#1bf87b" fill-rule="evenodd"/>
  </g>
</svg>
