<svg xmlns="http://www.w3.org/2000/svg" xmlns:xlink="http://www.w3.org/1999/xlink" width="40" height="40" viewBox="0 0 40 40">
  <defs>
    <clipPath id="clip-path">
      <rect id="_1" data-name="1" width="40" height="40" transform="translate(90 148)" fill="#fff" opacity="0"/>
    </clipPath>
  </defs>
  <g id="pm2.5_icon" transform="translate(-90 -148)" >
    <path id="_2" data-name="2" d="M30.242,17.321A11.9,11.9,0,0,1,37,28.112,11.776,11.776,0,0,1,25.764,39.99L8.838,40h0A9.081,9.081,0,0,1,7.164,22.046,10.616,10.616,0,0,1,6.446,19.9H1.527V19.9C.9,19.861.406,19.158.406,18.293s.5-1.568,1.121-1.6v0H6.248A10.757,10.757,0,0,1,8.4,11.159L4.913,7.349l.005-.005A1.489,1.489,0,0,1,5.3,5.413a1.417,1.417,0,0,1,1.913-.256l0,0,.031.034h0v0L10.643,8.9a12.365,12.365,0,0,1,5.6-2.367V1.145h.006A1.442,1.442,0,0,1,17.821,0a1.443,1.443,0,0,1,1.57,1.145h0V6.437a12.411,12.411,0,0,1,6.455,2.5l3.746-3.748.005.005a1.416,1.416,0,0,1,1.9.343,1.492,1.492,0,0,1,.3,1.947l0,0-.033.033h0L28.085,11.2a10.72,10.72,0,0,1,2.157,6.121ZM25.15,34.516a.535.535,0,0,0,.12.27.447.447,0,0,0,.264.13,2.915,2.915,0,0,0,.466.029,2.807,2.807,0,0,0,.455-.029.474.474,0,0,0,.27-.13.515.515,0,0,0,.125-.27,2.9,2.9,0,0,0,.03-.46,2.977,2.977,0,0,0-.03-.465.5.5,0,0,0-.125-.271.5.5,0,0,0-.27-.125A2.926,2.926,0,0,0,26,33.166a3.038,3.038,0,0,0-.466.029.474.474,0,0,0-.264.125.516.516,0,0,0-.12.271,2.84,2.84,0,0,0-.031.465A2.765,2.765,0,0,0,25.15,34.516Zm-6.19.37h4.851v-1.2h-3.03V33.6l.439-.349q.76-.6,1.235-1.055a5.453,5.453,0,0,0,.741-.846,2.481,2.481,0,0,0,.36-.754,3.176,3.176,0,0,0,.095-.786,1.742,1.742,0,0,0-.641-1.484,2.912,2.912,0,0,0-1.79-.485,7.86,7.86,0,0,0-.97.059,4.748,4.748,0,0,0-.87.191v1.21a5.957,5.957,0,0,1,.835-.2,4.725,4.725,0,0,1,.726-.059,1.608,1.608,0,0,1,.889.21.862.862,0,0,1,.321.78A1.38,1.38,0,0,1,22,30.65a3.244,3.244,0,0,1-.525.721,12.455,12.455,0,0,1-.984.944q-.616.542-1.526,1.271Zm-8.56,0h1.48v-5.46h.06l1.32,4.15h1.52l1.34-4.15h.06v5.46h1.5V27.945h-2.4l-1.2,3.91h-.06l-1.15-3.91H10.4ZM6.43,27.945H4.06v6.941H5.58v-2.14h.85a5.429,5.429,0,0,0,1.25-.125,1.964,1.964,0,0,0,.85-.415,1.666,1.666,0,0,0,.481-.755,3.806,3.806,0,0,0,.149-1.145,3.745,3.745,0,0,0-.135-1.076,1.574,1.574,0,0,0-.45-.729,1.954,1.954,0,0,0-.84-.42A5.326,5.326,0,0,0,6.43,27.945Zm11.8-19.321c-5.507,0-9.971,4.036-9.971,9.014A8.284,8.284,0,0,0,9.44,21.9a8.728,8.728,0,0,1,5.029,2.01,11.655,11.655,0,0,1,10.889-7.681,11.426,11.426,0,0,1,2.766.34C27.537,12.093,23.331,8.624,18.225,8.624Zm10.2,23.151c.227-.04.472-.074.735-.1a6.356,6.356,0,0,1,.715-.045,2.279,2.279,0,0,1,1.18.234.913.913,0,0,1,.37.835,1.059,1.059,0,0,1-.12.531.906.906,0,0,1-.33.335,1.454,1.454,0,0,1-.5.174,3.557,3.557,0,0,1-.63.051c-.14,0-.269,0-.385-.011a2.921,2.921,0,0,1-.335-.034c-.107-.016-.214-.035-.32-.055s-.224-.043-.35-.07v1.239a6.627,6.627,0,0,0,.71.1c.234.02.5.029.8.029a5.317,5.317,0,0,0,1.25-.134,2.542,2.542,0,0,0,.93-.42,1.9,1.9,0,0,0,.585-.72,2.419,2.419,0,0,0,.2-1.035,2.062,2.062,0,0,0-.585-1.615,2.556,2.556,0,0,0-1.755-.525q-.221,0-.39.015a2.837,2.837,0,0,0-.35.054l.22-1.429H32.5V27.945H28.92ZM7.3,31.275a.936.936,0,0,1-.425.2,3.2,3.2,0,0,1-.65.054H5.58v-2.38h.65a2.96,2.96,0,0,1,.645.061,1,1,0,0,1,.43.2.77.77,0,0,1,.235.37,1.942,1.942,0,0,1,.07.561,1.964,1.964,0,0,1-.07.575A.757.757,0,0,1,7.3,31.275Z" transform="translate(91.5 148)" fill="#1bf87b" fill-rule="evenodd"/>
  </g>
</svg>
