<svg xmlns="http://www.w3.org/2000/svg" width="40" height="34" viewBox="0 0 40 34">
  <defs>
    <style>
      .cls-1 {
        fill: #1bacff;
        fill-rule: evenodd;
      }
    </style>
  </defs>
  <path id="shangc_icon" class="cls-1" d="M449.976,332H416.024A3.06,3.06,0,0,1,413,328.91V301.092A3.06,3.06,0,0,1,416.024,298h9.57a3,3,0,0,1,2.474,1.319l1.22,1.777a3,3,0,0,0,2.476,1.319h18.212A3.061,3.061,0,0,1,453,305.506v23.4A3.059,3.059,0,0,1,449.976,332ZM451,305.506a1.06,1.06,0,0,0-1.024-1.091H431.764a5,5,0,0,1-4.125-2.187l-1.224-1.783a1,1,0,0,0-.821-0.445h-9.57A1.061,1.061,0,0,0,415,301.092V328.91a1.06,1.06,0,0,0,1.024,1.09h33.952A1.061,1.061,0,0,0,451,328.908v-23.4Zm-11.847,12.921h-2.4a0.8,0.8,0,0,0-.558.231,0.771,0.771,0,0,0-.227.552v4.812a0.988,0.988,0,0,1-.99.983h-3.973a0.987,0.987,0,0,1-.989-0.983V319.21a0.785,0.785,0,0,0-.782-0.783h-2.4a0.828,0.828,0,0,1-.587-1.416l5.566-5.517a1.674,1.674,0,0,1,2.351,0l5.566,5.517a0.818,0.818,0,0,1,.19.9A0.839,0.839,0,0,1,439.153,318.427Z" transform="translate(-413 -298)"/>
</svg>
