<svg xmlns="http://www.w3.org/2000/svg" xmlns:xlink="http://www.w3.org/1999/xlink" width="40" height="40" viewBox="0 0 40 40">
  <defs>
    <clipPath id="clip-path">
      <rect id="矩形_17" data-name="矩形 17" width="40" height="40" transform="translate(659 75)" fill="none" opacity="0"/>
    </clipPath>
  </defs>
  <g id="shid_icon" transform="translate(-659 -75)" >
    <path id="shid_icon-2" data-name="shid_icon" d="M443.067,614.4l-.042-.042a1.221,1.221,0,0,0-.868-.362h-.188a1.225,1.225,0,0,0-.869.362h0c-.026.026-.051.054-.076.083-.914,1.1-14.032,16.11-14.032,24.067a14.985,14.985,0,0,0,4.019,10.774A14.826,14.826,0,0,0,441.46,654H442a15.273,15.273,0,0,0,10.315-4.04A14.978,14.978,0,0,0,457,639.46v-.943c.134-8.081-13.4-23.435-13.932-24.108h0Zm11.387,24.916a12.054,12.054,0,0,1-3.885,8.619,12.751,12.751,0,0,1-8.841,3.367,11.932,11.932,0,0,1-8.573-3.905,12.669,12.669,0,0,1-3.349-8.889c0-5,7.04-14.759,11.372-20.12a1.224,1.224,0,0,1,1.9,0c4.332,5.345,11.372,15,11.372,20.121v.808Zm0,0-22.907-.674a10.583,10.583,0,1,0,21.166,0c0-5.791-5.761,2.29-10.851-.673s-10.315-5.253-10.315.673h0Zm0,0" transform="translate(237.018 -538.996)" fill="#1bacff" fill-rule="evenodd"/>
  </g>
</svg>
