<svg xmlns="http://www.w3.org/2000/svg" xmlns:xlink="http://www.w3.org/1999/xlink" width="46" height="46" viewBox="0 0 46 46">
  <defs>
    <clipPath id="clip-path">
      <rect id="矩形_2" data-name="矩形 2" width="46" height="46" transform="translate(374 122)" fill="#fff" opacity="0"/>
    </clipPath>
  </defs>
  <g id="shuiccg_icon" transform="translate(-374 -122)">
    <path id="路径_2" data-name="路径 2" d="M19,5.813a1.456,1.456,0,1,0,1.461,1.456A1.456,1.456,0,0,0,19,5.813Zm-.029,11.628a1.486,1.486,0,0,0-1,.442l-8.76,8.734a1.448,1.448,0,0,0,.636,2.458,1.464,1.464,0,0,0,1.422-.408l8.777-8.734a1.461,1.461,0,0,0,.322-1.6,1.491,1.491,0,0,0-1.394-.888Zm-8.74-8.716a1.456,1.456,0,1,0,1.462,1.455,1.454,1.454,0,0,0-1.462-1.455ZM7.308,17.458A1.456,1.456,0,1,0,8.77,18.914a1.456,1.456,0,0,0-1.462-1.456Zm19.805-8.08a1.456,1.456,0,1,0,1.461,1.456,1.456,1.456,0,0,0-1.461-1.456ZM25.087,34.926H8.872l-.366-.239A19,19,0,1,1,37.793,21.641a48.552,48.552,0,0,0-3.445-5.075,15.527,15.527,0,1,0-24.291,14.92H22.469A9.952,9.952,0,0,0,24.1,33.991,8.408,8.408,0,0,0,25.087,34.926Zm12.821-6.907a6.929,6.929,0,0,1-2.246,4.963,7.39,7.39,0,0,1-5.111,1.938,6.908,6.908,0,0,1-4.956-2.248,7.278,7.278,0,0,1-1.936-5.118c0-2.88,4.07-8.5,6.574-11.585a.71.71,0,0,1,1.1,0c2.5,3.078,6.574,8.634,6.574,11.586Z" transform="translate(378 128.009)" fill="#1bacff" fill-rule="evenodd"/>
  </g>
</svg>
