<svg xmlns="http://www.w3.org/2000/svg" xmlns:xlink="http://www.w3.org/1999/xlink" width="46" height="46" viewBox="0 0 46 46">
  <defs>
    <clipPath id="clip-path">
      <rect id="矩形_8" data-name="矩形 8" width="46" height="46" transform="translate(528 250)" fill="#fff" opacity="0"/>
    </clipPath>
  </defs>
  <g id="shujcjq_icon" transform="translate(-528 -250)" >
    <path id="shujcjq_icon-2" data-name="shujcjq_icon" d="M519.99,435.581a1.739,1.739,0,0,0-.759.175l-9.22,4.455A1.818,1.818,0,0,0,509,441.843v20.326a1.818,1.818,0,0,0,1.1,1.681l16.728,7.014a1.728,1.728,0,0,0,1.344,0L544.9,463.85a1.818,1.818,0,0,0,1.1-1.681V441.852a1.818,1.818,0,0,0-1.017-1.641l-9.116-4.413a1.746,1.746,0,0,0-1.812.108,1.835,1.835,0,0,0,.291,3.176l6.3,3.044-13.157,6.236-13.169-6.231,6.429-3.088a1.835,1.835,0,0,0,.848-2.42,1.776,1.776,0,0,0-1.61-1.041m9.252,30.909V451.547l13.205-6.273v15.678l-13.205,5.538M527.433,433a1.756,1.756,0,0,0-.89.243,1.826,1.826,0,0,0-.889,1.574v6.194l-1.349-1.143a1.755,1.755,0,0,0-2.506.239,1.843,1.843,0,0,0,.234,2.559l3.828,3.241a2.389,2.389,0,0,0,1.557.581h.018a2.383,2.383,0,0,0,1.554-.578l3.855-3.24a1.847,1.847,0,0,0,.231-2.565,1.756,1.756,0,0,0-2.511-.237l-1.353,1.14v-6.191a1.824,1.824,0,0,0-.889-1.574,1.753,1.753,0,0,0-.89-.243" transform="translate(23 -179)" fill="#1bacff" fill-rule="evenodd"/>
  </g>
</svg>
