<svg xmlns="http://www.w3.org/2000/svg" xmlns:xlink="http://www.w3.org/1999/xlink" width="46" height="46" viewBox="0 0 46 46">
  <defs>
    <clipPath id="clip-path">
      <rect id="矩形_9" data-name="矩形 9" width="46" height="46" transform="translate(555 250)" fill="#fff" opacity="0"/>
    </clipPath>
  </defs>
  <g id="sos_icon" transform="translate(-555 -250)">
    <path id="sos_icon-2" data-name="sos_icon" d="M1124.61,336.761l-2.2-2.188c-.42-.328-.81-.831-1.23-1.137a11.007,11.007,0,0,1-.86-1.138,2.667,2.667,0,0,1-.46-1.335,2.337,2.337,0,0,1,.46-1.488,1.738,1.738,0,0,1,2.79.24,5.582,5.582,0,0,1,.69,2.386l4.39-.131a7.463,7.463,0,0,0-2-5.342,5.952,5.952,0,0,0-4.4-1.616,6.026,6.026,0,0,0-6.46,6.364,9.523,9.523,0,0,0,3.56,6.742l2.36,2.383a12.837,12.837,0,0,1,1.76,1.95,3.139,3.139,0,0,1,.59,1.749c0,1.511-.59,2.189-1.8,2.189a1.963,1.963,0,0,1-1.06-.285,1.891,1.891,0,0,1-.66-.809,5.923,5.923,0,0,1-.33-1.007,9.441,9.441,0,0,1-.17-1.181l-4.58.241a8.063,8.063,0,0,0,1.94,5.209,6.788,6.788,0,0,0,9.57-.119,6.692,6.692,0,0,0,1.86-3.755,3.136,3.136,0,0,0,0-.613,7.71,7.71,0,0,0-.92-3.762,12.32,12.32,0,0,0-2.84-3.547h0ZM1142.2,326.7a7.888,7.888,0,0,0-5.21-1.707,7.59,7.59,0,0,0-5.19,1.75,6.285,6.285,0,0,0-2,4.9v11.992a6.387,6.387,0,0,0,1.91,5.034,8.826,8.826,0,0,0,10.42,0,6.249,6.249,0,0,0,2-5.056V331.554a6.057,6.057,0,0,0-1.98-4.9Zm-3.01,4.858v12.21a2.518,2.518,0,0,1-.57,1.686,2.406,2.406,0,0,1-3.3,0,2.572,2.572,0,0,1-.53-1.729V331.554a2.406,2.406,0,0,1,.55-1.686,2.361,2.361,0,0,1,3.32.2,2.2,2.2,0,0,1,.55,1.16,1.2,1.2,0,0,1-.02.328h0Zm16.05,5.207-2.2-2.188c-.42-.371-.84-.766-1.23-1.182a10.979,10.979,0,0,1-.86-1.136,2.675,2.675,0,0,1-.46-1.337,2.335,2.335,0,0,1,.46-1.487,1.61,1.61,0,0,1,1.32-.591,1.647,1.647,0,0,1,1.52.832,6.2,6.2,0,0,1,.61,2.385l4.4-.13a7.507,7.507,0,0,0-2.02-5.3,5.985,5.985,0,0,0-4.4-1.618,6.391,6.391,0,0,0-4.86,1.816,6.507,6.507,0,0,0-1.71,4.55,9.519,9.519,0,0,0,3.71,6.741l2.36,2.318a14.643,14.643,0,0,1,1.76,1.949,3.114,3.114,0,0,1,.54,1.751c0,1.509-.59,2.188-1.8,2.188a2,2,0,0,1-1.06-.284,1.718,1.718,0,0,1-.66-.809,7.175,7.175,0,0,1-.32-1.009c-.07-.34-.12-.683-.16-1.028l-4.57.131a7.985,7.985,0,0,0,1.93,5.209,6.78,6.78,0,0,0,11.44-3.982,3.136,3.136,0,0,0,0-.614,7.316,7.316,0,0,0-.9-3.631,13.606,13.606,0,0,0-2.84-3.547h0Zm0,0" transform="translate(-559 -64.986)" fill="#1bacff" fill-rule="evenodd"/>
  </g>
</svg>
