<svg xmlns="http://www.w3.org/2000/svg" width="18" height="16" viewBox="0 0 18 16">
  <path id="wanggpz_click_icon" class="cls-1" d="M361.588,174.87a0.751,0.751,0,1,1,0,1.5,0.751,0.751,0,0,1,0-1.5h0Zm4.653,0a0.752,0.752,0,1,1,0,1.5h-2.258a0.751,0.751,0,0,1,0-1.5h2.258Zm7.009-2.772h-0.131v-2.85a0.75,0.75,0,1,0-1.5,0v2.85h-2.042V166.75a0.75,0.75,0,0,0-1.5,0V172.1h-7.329a2.75,2.75,0,0,0-2.749,2.75v1.544a2.745,2.745,0,0,0,2.3,2.7v2.154a0.75,0.75,0,0,0,1.5,0v-2.108H372.2v2.108a0.75,0.75,0,0,0,1.5,0V179.1a2.745,2.745,0,0,0,2.3-2.7v-1.544A2.75,2.75,0,0,0,373.25,172.1Zm1.25,4.294a1.251,1.251,0,0,1-1.249,1.25h-12.5a1.251,1.251,0,0,1-1.25-1.25v-1.544a1.251,1.251,0,0,1,1.25-1.25h12.5a1.251,1.251,0,0,1,1.249,1.25v1.544Z" transform="translate(-358 -166)"/>
</svg>
