<svg xmlns="http://www.w3.org/2000/svg" width="18" height="18" viewBox="0 0 18 18">
  <path id="wanglpz_click_icon" class="cls-1" d="M367,215a9,9,0,1,0,9,9A9.01,9.01,0,0,0,367,215Zm-7.514,9A7.522,7.522,0,0,1,367,216.485a7.388,7.388,0,0,1,1.1.086l-0.012.034a2.16,2.16,0,0,0,1.055,2.578l0.065,0.044c0.039,0.034.142,0.122-.092,0.483a0.788,0.788,0,0,1-.423.076,2.225,2.225,0,0,0-1.711.709l-0.019-.01-0.024.048a0.35,0.35,0,0,0-.036.046,1.845,1.845,0,0,0-.436,1.221,6.312,6.312,0,0,0,.016.755,4.658,4.658,0,0,1,.009.686,2.1,2.1,0,0,1-.058.29,0.684,0.684,0,0,1-.34.425,0.766,0.766,0,0,1-.354.1,0.384,0.384,0,0,1-.117-0.017,1.93,1.93,0,0,1-.5-0.368,2.777,2.777,0,0,0-1.856-.873,2.552,2.552,0,0,0-.888.171,2.28,2.28,0,0,0-1.391,2.481,1.665,1.665,0,0,1-.1.767,1.392,1.392,0,0,1-.972.28A7.429,7.429,0,0,1,359.486,224Zm9.863,7.137a1.66,1.66,0,0,1-.227-1.033,0.729,0.729,0,0,1,.3-0.416,2.532,2.532,0,0,0,.854-1.175,6.589,6.589,0,0,0,.228-0.769c0.195-.782.252-0.809,0.494-0.809a1.983,1.983,0,0,1,.226.015,1.961,1.961,0,0,1,1.024.516,3.357,3.357,0,0,0,1.059.6A7.5,7.5,0,0,1,369.349,231.137Zm4.607-4.442a1.321,1.321,0,0,1-.8-0.4,3.346,3.346,0,0,0-1.761-.816c-1.8-.214-2.137,1.115-2.336,1.908a4.884,4.884,0,0,1-.173.6,1.074,1.074,0,0,1-.405.556,2.161,2.161,0,0,0-.761,1.068,2.659,2.659,0,0,0,.149,1.841,7.6,7.6,0,0,1-.872.055,7.488,7.488,0,0,1-6.39-3.588,2.4,2.4,0,0,0,1.376-.7,2.458,2.458,0,0,0,.488-1.761c0-.75.045-0.956,0.424-1.1a1.058,1.058,0,0,1,1.241.423,2.875,2.875,0,0,0,1.041.675,2.189,2.189,0,0,0,2.669-1.5h0l0-.019a0.084,0.084,0,0,0,.006-0.014c0-.019.006-0.036,0.011-0.055a2.626,2.626,0,0,0,.081-0.394c0.008-.058.011-0.112,0.016-0.168s0.009-.091.011-0.135a6.253,6.253,0,0,0-.017-0.887c-0.01-.131-0.017-0.262-0.02-0.393a0.659,0.659,0,0,1,.087-0.346,3.19,3.19,0,0,1,.58-0.135,2.584,2.584,0,0,0,1.588-.679l0.006,0h0c0.023-.027.049-0.052,0.071-0.082a1.789,1.789,0,0,0-.106-2.546c-0.059-.048-0.119-0.092-0.181-0.134-0.433-.3-0.617-0.513-0.491-0.9,0.014-.041.028-0.073,0.042-0.111a7.472,7.472,0,0,1,4.455,9.74A0.284,0.284,0,0,1,373.956,226.7Z" transform="translate(-358 -215)"/>
</svg>
