<svg xmlns="http://www.w3.org/2000/svg" xmlns:xlink="http://www.w3.org/1999/xlink" width="46" height="46" viewBox="0 0 46 46">
  <defs>
    <clipPath id="clip-path">
      <rect id="矩形_10" data-name="矩形 10" width="46" height="46" transform="translate(579 250)" fill="#fff" opacity="0"/>
    </clipPath>
  </defs>
  <g id="weibld_icon" transform="translate(-579 -250)" >
    <path id="weibld_icon-2" data-name="weibld_icon" d="M890.939,356.916A17.054,17.054,0,0,1,874,339.785a17.656,17.656,0,0,1,3.562-10.486c.712-.961,1.662-2.082,1.82-2.242a1.612,1.612,0,0,1,.871-.32.925.925,0,0,1,.792.32l7.994,8.006a4.852,4.852,0,0,1,6.573.317,4.99,4.99,0,0,1,.314,6.647l7.678,7.765a1.286,1.286,0,0,1,.4.881,1.3,1.3,0,0,1-.475,1.04l-2.137,1.6a16.645,16.645,0,0,1-10.449,3.6h0Zm11.478-17.371a1.87,1.87,0,0,1-1.35-.556,1.913,1.913,0,0,1-.55-1.365,6.851,6.851,0,0,0-2.058-4.963,7.2,7.2,0,0,0-4.908-2.081,1.868,1.868,0,0,1-1.349-.557,1.906,1.906,0,0,1-.55-1.365,1.871,1.871,0,0,1,.537-1.378,1.828,1.828,0,0,1,1.362-.543,11.1,11.1,0,0,1,7.678,3.122l.087.1.038.043a10.853,10.853,0,0,1,2.962,7.618,1.87,1.87,0,0,1-.536,1.38,1.828,1.828,0,0,1-1.363.542h0Zm7.678,0a1.936,1.936,0,0,1-1.9-1.921,14.679,14.679,0,0,0-14.644-14.811,1.864,1.864,0,0,1-1.349-.557,1.968,1.968,0,0,1,0-2.729,1.868,1.868,0,0,1,1.349-.556h.293a18.085,18.085,0,0,1,12.768,5.365,19.021,19.021,0,0,1,5.382,13.288,1.908,1.908,0,0,1-.55,1.365,1.868,1.868,0,0,1-1.349.556h0Zm0,0" transform="translate(-291 -64.971)" fill="#1bacff" fill-rule="evenodd"/>
  </g>
</svg>
