<svg xmlns="http://www.w3.org/2000/svg" xmlns:xlink="http://www.w3.org/1999/xlink" width="40" height="40" viewBox="0 0 40 40">
  <defs>
    <clipPath id="clip-path">
      <rect id="矩形_18" data-name="矩形 18" width="40" height="40" transform="translate(850 75)" fill="none" opacity="0"/>
    </clipPath>
  </defs>
  <g id="wend_icon" transform="translate(-850 -75)" >
    <path id="wend_icon-2" data-name="wend_icon" d="M277.423,635.1a.662.662,0,0,1-.171-.348h0V620.223a5.518,5.518,0,0,0-1.029-3.215,6.437,6.437,0,0,0-3.09-2.349,8.736,8.736,0,0,0-7.892.608,5.487,5.487,0,0,0-1.973,2,5.738,5.738,0,0,0-.859,3.131v14.349a.669.669,0,0,1-.17.435,11.133,11.133,0,0,0-3,10.174,10.806,10.806,0,0,0,12.182,8.524,9.932,9.932,0,0,0,5.577-2.7,10.946,10.946,0,0,0,3.517-9.913,10.134,10.134,0,0,0-3.088-6.175h0Zm.258,9.131a7.888,7.888,0,0,1-6.692,6.7,7.621,7.621,0,0,1-6.091-1.739,7.539,7.539,0,0,1-2.745-4.609,8.034,8.034,0,0,1,2.658-7.74h0a.849.849,0,0,0,.072-.055,1.274,1.274,0,0,0,.45-1c0-.312-.007-.684-.007-.835V620.4a3.079,3.079,0,0,1,1.372-2.608,5.807,5.807,0,0,1,3.775-.871,5.077,5.077,0,0,1,2.745,1.045,3.019,3.019,0,0,1,1.2,2.347v15.654a.668.668,0,0,0,.171.434h0a8.821,8.821,0,0,1,2.573,3.3,8.27,8.27,0,0,1,.515,4.523h0Zm-5.407-6.261a.365.365,0,0,1-.257-.348v-8.784a1.483,1.483,0,0,0-.771-1.393,2.716,2.716,0,0,0-2.317-.26h0a1.737,1.737,0,0,0-1.373,1.913h0v8.6a.452.452,0,0,1-.171.346h0a5.7,5.7,0,0,0-2.66,7.479,5.507,5.507,0,0,0,10.467-3.043h0a5.031,5.031,0,0,0-2.917-4.521h0Zm8.15-19.653h6.006a.87.87,0,0,1,0,1.739h-6.006a.818.818,0,0,1-.859-.87.865.865,0,0,1,.859-.871h0Zm0,4.347h4.285a.866.866,0,0,1,.864.846.821.821,0,0,1-.859.9h-4.261a.883.883,0,0,1-.884-.945.862.862,0,0,1,.855-.8h0Zm0,4.349h7.722a.87.87,0,0,1,0,1.739h-7.722a.818.818,0,0,1-.859-.87.865.865,0,0,1,.859-.871h0Zm0,4.347h6a.864.864,0,0,1,.863.846.82.82,0,0,1-.858.9h-5.977a.884.884,0,0,1-.885-.944.864.864,0,0,1,.856-.8h0Zm0,0" transform="translate(596.005 -538.992)" fill="#ffa800" fill-rule="evenodd"/>
  </g>
</svg>
