<svg xmlns="http://www.w3.org/2000/svg" viewBox="0 0 92.9 108.69"><defs><style>.cls-1{fill:#0b258b;}.cls-2{fill:#082184;}.cls-3{fill:#08207d;}.cls-4{fill:#081c71;}.cls-5{fill:#0d3da1;}.cls-6{fill:#103d9c;}</style></defs><title>wushuju1</title><g id="图层_2" data-name="图层 2"><g id="wushuju"><path class="cls-1" d="M15.15,40.27H76.41V66.91H15.15Z"/><path class="cls-2" d="M15.15,65.57H76.41l14.65,41.29H1.83Z"/><path class="cls-3" d="M76.41,40.27V66.91l16,41.28V77.56Z"/><path class="cls-3" d="M15.15,40.27V66.91L.5,108.19V77.56Z"/><path class="cls-4" d="M55.07,77.56a10,10,0,0,1-19.91,0H.5v30.63H92.4V77.56Z"/><g id="形状_15" data-name="形状 15"><path class="cls-5" d="M23.36,67.65,23,66.71A22,22,0,0,0,26.5,65l.52.85A21.39,21.39,0,0,1,23.36,67.65Zm5.37-3-.57-.82a38.31,38.31,0,0,0,3.13-2.4l.65.76A39.73,39.73,0,0,1,28.73,64.7Zm4.72-3.81-.68-.73c.95-.89,1.88-1.84,2.76-2.83l.75.67C35.37,59,34.42,60,33.45,60.89Zm4.14-4.42-.77-.64c.82-1,1.62-2.07,2.38-3.16l.82.57C39.25,54.36,38.43,55.44,37.59,56.47Zm3.55-4.91L40.3,51c.7-1.09,1.38-2.24,2-3.41l.88.48C42.54,49.28,41.86,50.45,41.14,51.56ZM39.33,48.9a9.61,9.61,0,0,1-2-.2l.2-1a9.62,9.62,0,0,0,3.78,0l.19,1A11.51,11.51,0,0,1,39.33,48.9Zm4.15-.75-.34-.94a18.09,18.09,0,0,0,3.49-1.71l.53.85A18.88,18.88,0,0,1,43.48,48.15ZM35.31,48A9.3,9.3,0,0,1,32,45.47l.77-.63a8.25,8.25,0,0,0,3,2.29Zm8.81-1.75-.9-.43a8.11,8.11,0,0,0,.87-3.47v-.16l1,0v.18A9,9,0,0,1,44.12,46.29Zm4.72-1.09-.59-.8a35,35,0,0,0,3-2.54l.68.72A34,34,0,0,1,48.84,45.2Zm-18-1.5A8.36,8.36,0,0,1,29.92,40c0-.13,0-.25,0-.38l1,.06c0,.11,0,.21,0,.32a7.45,7.45,0,0,0,.83,3.29Zm22.53-2.55-.72-.69c.75-.79,1.53-1.65,2.28-2.56l.32-.4.79.61-.33.42C54.94,39.47,54.15,40.35,53.38,41.15Zm-9.64-.71a6.12,6.12,0,0,0-2.28-2.84l.58-.82a7.22,7.22,0,0,1,2.64,3.31ZM31.36,37.93l-.89-.47A5,5,0,0,1,34,35.06l.21,1A4.08,4.08,0,0,0,31.36,37.93Zm8.45-1.25a10,10,0,0,0-3.7-.81l0-1a11.07,11.07,0,0,1,4.07.89Zm17.45-.18-.81-.59c.82-1.1,1.59-2.2,2.3-3.25l.83.56C58.87,34.28,58.08,35.39,57.26,36.5Zm3.42-5L59.83,31c.76-1.2,1.44-2.35,2-3.42l.88.47C62.14,29.14,61.45,30.31,60.68,31.53Zm3-5.28-.9-.43a13.94,13.94,0,0,0,.69-1.65l1,.31A15,15,0,0,1,63.63,26.25Z"/></g><path id="形状_18" data-name="形状 18" class="cls-6" d="M67.11,22v8.11l4.29-4.64ZM83.18,0,67.11,19.69l10.71,5.79Zm0,0L54.26,15.06l9.64,4.63Z"/><path class="cls-6" d="M92.73,77.06,76.91,39.77H14.65L0,77l0,.09H0v31.63H92.9V77.06ZM77,42.4,91.64,77.06H80.88l-4-10.25Zm-61.59,25H76.07l3.74,9.65H54.6l0,.47a9.5,9.5,0,0,1-9.45,8.86h0a9.51,9.51,0,0,1-9.46-8.86l0-.47H11.94Zm60.55-1.34H15.65V40.77H75.91ZM14.65,42.51V66.42L10.88,77.06H1.08ZM91.9,107.69H1V78.06H34.7a10.51,10.51,0,0,0,10.42,9.33h0a10.5,10.5,0,0,0,10.41-9.33H91.9Z"/></g></g></svg>