<svg xmlns="http://www.w3.org/2000/svg" xmlns:xlink="http://www.w3.org/1999/xlink" width="46" height="46" viewBox="0 0 46 46">
  <defs>
    <clipPath id="clip-path">
      <rect id="矩形_11" data-name="矩形 11" width="46" height="46" transform="translate(623 250)" fill="#fff" opacity="0"/>
    </clipPath>
  </defs>
  <g id="xiansp_icon" transform="translate(-623 -250)">
    <path id="xiansp_icon-2" data-name="xiansp_icon" d="M546,323.48a2.487,2.487,0,0,0-2.5-2.48h-33a2.486,2.486,0,0,0-2.5,2.478V348.97c0,.04.02.077.024.117V355h37.952v-5.914a1.159,1.159,0,0,0,.024-.118Zm-35.584-.08a.113.113,0,0,1,.08-.032h33.01a.113.113,0,0,1,.114.114v24.174H510.382V323.48A.11.11,0,0,1,510.416,323.4Zm2.53,22.162H541.1a.861.861,0,0,0,.86-.862V326.023a.86.86,0,0,0-.86-.856H512.946a.86.86,0,0,0-.86.856v18.685a.861.861,0,0,0,.86.854Zm14.91-15.221h4.3a3.983,3.983,0,0,1,3.148,1.217,5.217,5.217,0,0,1,1.077,3.561,6.008,6.008,0,0,1-1.118,3.928,4.022,4.022,0,0,1-3.278,1.343h-4.128V330.341Zm-10.186,0h2.1v3.767h3.93v-3.767h2.1V340.39h-2.1v-4.553h-3.93v4.553h-2.1Zm14.055,8.319h-1.771v-6.59H531.9a2.108,2.108,0,0,1,1.791.783,3.859,3.859,0,0,1,.594,2.348,4.354,4.354,0,0,1-.639,2.6,2.231,2.231,0,0,1-1.921.864Z" transform="translate(119 -65)" fill="#1bacff" fill-rule="evenodd"/>
  </g>
</svg>
