<svg xmlns="http://www.w3.org/2000/svg" width="17.906" height="18" viewBox="0 0 17.906 18">
  <path id="xitsz_click_icon" class="cls-1" d="M373.958,274l1.7-1.613,0.085-.074a0.862,0.862,0,0,0,.142-0.917l-1.474-3.15-0.036-.09a0.866,0.866,0,0,0-.873-0.445l-2.5.338-0.794-2.4-0.035-.1a0.914,0.914,0,0,0-.871-0.551h-4.651l-0.121.007a0.9,0.9,0,0,0-.787.646l-0.68,2.4-2.5-.338-0.114-.009a0.889,0.889,0,0,0-.907.544l-1.361,3.15-0.054.093a0.831,0.831,0,0,0,.167.9l1.7,1.613-1.7,1.614-0.059.083a0.922,0.922,0,0,0-.054,1l1.928,3.151,0.04,0.085a0.875,0.875,0,0,0,.867.356l2.042-.317,0.681,2.377,0.036,0.1a0.913,0.913,0,0,0,.871.551h4.651l0.12-.006a0.9,0.9,0,0,0,.787-0.647l0.793-2.377,1.928,0.317,0.134,0.012a0.991,0.991,0,0,0,.888-0.453l1.866-3.24a0.778,0.778,0,0,0-.165-0.992Zm-1.213,4.737-2.35-.378-0.091-.009a0.6,0.6,0,0,0-.595.429l-0.864,2.722H365.11l-0.74-2.718-0.032-.035a0.825,0.825,0,0,0-.663-0.4,0.586,0.586,0,0,0-.1.009l-2.362.38-1.351-2.391,1.981-1.926,0.051-.064a0.615,0.615,0,0,0-.058-0.785l-2.076-1.957,1.093-2.355,2.713,0.384,0.106,0.007a0.771,0.771,0,0,0,.724-0.494l0.717-2.657h3.734l0.89,2.8a0.629,0.629,0,0,0,.575.351l2.928-.39,0.958,2.356-1.956,1.96-0.1.088a0.462,0.462,0,0,0-.152.357,0.525,0.525,0,0,0,.223.378l2.013,1.954Zm-5.713-8.314a3.6,3.6,0,0,0,0,7.2A3.6,3.6,0,0,0,367.032,270.422Zm0,5.7a2.1,2.1,0,1,1,0-4.2A2.1,2.1,0,0,1,367.032,276.121Z" transform="translate(-358.063 -265)"/>
</svg>
