<svg xmlns="http://www.w3.org/2000/svg" width="13" height="13" viewBox="0 0 13 13">
  <path id="xiug_icon" class="cls-1" d="M397.47,160.53h0a0.75,0.75,0,0,1,0,1.061l-6.2,6.2a0.75,0.75,0,0,1-1.061,0h0a0.75,0.75,0,0,1,0-1.061l6.2-6.2A0.75,0.75,0,0,1,397.47,160.53ZM396.5,171.3a0.2,0.2,0,0,1-.2.2H386.7a0.2,0.2,0,0,1-.2-0.2V161.7a0.2,0.2,0,0,1,.2-0.2h4.578a0.75,0.75,0,0,0,.75-0.75h0a0.75,0.75,0,0,0-.75-0.75H386.7a1.7,1.7,0,0,0-1.7,1.7V171.3a1.7,1.7,0,0,0,1.7,1.7H396.3a1.7,1.7,0,0,0,1.7-1.7v-4.578a0.75,0.75,0,0,0-.75-0.75h0a0.75,0.75,0,0,0-.75.75V171.3Z" transform="translate(-385 -160)"/>
</svg>
