<svg xmlns="http://www.w3.org/2000/svg" width="18" height="18" viewBox="0 0 18 18">
  <path id="yewpz_click_icon" d="M16.5,10.237V1a1,1,0,0,0-1-1H2.5a1,1,0,0,0-1,1v9.235H1a1,1,0,0,0-1,1V17a1,1,0,0,0,1,1H17a1,1,0,0,0,1-1V11.239a1,1,0,0,0-1-1ZM3.005,1.5H15.011v8.775H12.749v2.165H5.278V10.232L3.005,10.22ZM16.5,16.5l-15,0V11.735H3.778v1.2A1.007,1.007,0,0,0,4.785,13.94h8.457a1.007,1.007,0,0,0,1.007-1.007v-1.2H16.5ZM13.5,4.18a.7.7,0,0,1-.695.7H8.65a1.5,1.5,0,0,1-1.332.815h0a1.5,1.5,0,0,1-1.333-.815H5.2a.7.7,0,1,1,0-1.39h.79a1.5,1.5,0,0,1,1.333-.814h0a1.5,1.5,0,0,1,1.332.814h4.155A.7.7,0,0,1,13.5,4.18Zm-9,3.938a.7.7,0,0,0,.7.695H9.349a1.5,1.5,0,0,0,1.333.814h0a1.5,1.5,0,0,0,1.333-.814h.79a.695.695,0,0,0,0-1.39h-.79a1.5,1.5,0,0,0-1.333-.815h0a1.5,1.5,0,0,0-1.333.815H5.2A.7.7,0,0,0,4.5,8.118Z" fill-rule="evenodd"/>
</svg>
