<svg xmlns="http://www.w3.org/2000/svg" xmlns:xlink="http://www.w3.org/1999/xlink" width="68" height="68" viewBox="0 0 68 68">
  <defs>
    <clipPath id="clip-path">
      <rect id="矩形_1" data-name="矩形 1" width="68" height="68" transform="translate(620 147)" fill="#fff" opacity="0"/>
    </clipPath>
  </defs>
  <g id="yunfwq_icon" transform="translate(-620 -147)" >
    <path id="路径_1" data-name="路径 1" d="M23.057,56H2.228A2.23,2.23,0,0,1,0,53.767V34.216a2.23,2.23,0,0,1,2.228-2.231H27.711a11.681,11.681,0,0,0-2.429,5.008.313.313,0,0,1-.176.231,10.858,10.858,0,0,0-7,9.921A10.636,10.636,0,0,0,23.057,56ZM47.762,35.112A10.649,10.649,0,0,1,57,45.485,10.45,10.45,0,0,1,46.623,56h-17.3c-5.143-.267-9.223-4.14-9.223-8.853a8.854,8.854,0,0,1,5.759-8.067,2.3,2.3,0,0,0,1.377-1.671A10.272,10.272,0,0,1,37.4,29.438a10.458,10.458,0,0,1,8.773,4.656,2.323,2.323,0,0,0,1.593,1.018ZM45.056,2.232V10.5a2.23,2.23,0,0,1-2.228,2.232H2.228A2.23,2.23,0,0,1,0,10.5V2.232A2.229,2.229,0,0,1,2.228,0h40.6A2.229,2.229,0,0,1,45.056,2.232ZM8,6.368a2,2,0,1,0-2,2A2,2,0,0,0,8,6.368Zm13.333,0a2.007,2.007,0,0,0-2-2H12.667a2,2,0,0,0,0,4.005h6.666A2.007,2.007,0,0,0,21.333,6.368Zm23.723,11.84V26.48a2.23,2.23,0,0,1-2.228,2.231H2.228A2.23,2.23,0,0,1,0,26.48V18.208a2.23,2.23,0,0,1,2.228-2.232h40.6A2.23,2.23,0,0,1,45.056,18.208ZM8,22.344a2,2,0,1,0-2,2A2,2,0,0,0,8,22.344Zm13.333,0a2.007,2.007,0,0,0-2-2H12.667a2,2,0,0,0,0,4.005h6.666A2.007,2.007,0,0,0,21.333,22.344Z" transform="translate(626 152.999)" fill="#1bacff" fill-rule="evenodd"/>
  </g>
</svg>
