<svg xmlns="http://www.w3.org/2000/svg" xmlns:xlink="http://www.w3.org/1999/xlink" width="46" height="46" viewBox="0 0 46 46">
  <defs>
    <clipPath id="clip-path">
      <rect id="矩形_12" data-name="矩形 12" width="46" height="46" transform="translate(659 250)" fill="#fff" opacity="0"/>
    </clipPath>
  </defs>
  <g id="zhihdy_icon" transform="translate(-659 -250)" >
    <path id="zhihdy_icon-2" data-name="zhihdy_icon" d="M783.667,325.667h3.744A2.589,2.589,0,0,1,790,328.255v24.156A2.589,2.589,0,0,1,787.411,355H754.589A2.589,2.589,0,0,1,752,352.411V328.255a2.589,2.589,0,0,1,2.589-2.588h3.744v-1.974A1.693,1.693,0,0,1,760.026,322h3.948a1.693,1.693,0,0,1,1.693,1.693v1.974h10.666v-1.974A1.693,1.693,0,0,1,778.026,322h3.948a1.693,1.693,0,0,1,1.693,1.693ZM765.218,343.4h4.072l-1.438,5.836h.01a.534.534,0,0,0-.025.126.507.507,0,0,0,.547.475.521.521,0,0,0,.38-.183l8.424-9.374a.032.032,0,0,0,.019-.022v-.006a.5.5,0,0,0,.126-.342.517.517,0,0,0-.525-.475h-.041l-3.37-.032,2.3-4.7a.535.535,0,0,0,.051-.222A.514.514,0,0,0,775.2,334h-.016l-6.137.01h-.025a.528.528,0,0,0-.466.3.037.037,0,0,1-.009.032l-3.835,8.366a.375.375,0,0,0-.041.213.509.509,0,0,0,.548.475h0Zm0,0" transform="translate(-89 -65)" fill="#1bacff" fill-rule="evenodd"/>
  </g>
</svg>
