<svg xmlns="http://www.w3.org/2000/svg" xmlns:xlink="http://www.w3.org/1999/xlink" width="46" height="46" viewBox="0 0 46 46">
  <defs>
    <clipPath id="clip-path">
      <rect id="矩形_13" data-name="矩形 13" width="46" height="46" transform="translate(678 250)" fill="#fff" opacity="0"/>
    </clipPath>
  </defs>
  <g id="zhinmens_icon" transform="translate(-678 -250)" >
    <path id="zhinmens_icon-2" data-name="zhinmens_icon" d="M405.069,454.578h12.306a2.62,2.62,0,0,1,0,5.24H405.069a2.62,2.62,0,1,1,0-5.24ZM394.539,433h16.015a3.534,3.534,0,0,1,3.536,3.531v16.751h-9.211a3.916,3.916,0,1,0,0,7.832h9.214v6.357A3.538,3.538,0,0,1,410.554,471H394.542A3.538,3.538,0,0,1,391,467.471V436.534A3.539,3.539,0,0,1,394.542,433h0Zm4.784,34.56h6.444a.709.709,0,0,0,.709-.707v-3.061a.708.708,0,0,0-.706-.71h-6.447a.707.707,0,0,0-.706.71v3.061a.706.706,0,0,0,.706.7h0Zm-1.391-17.66h9.229a3.066,3.066,0,0,0,3.066-3.066v-7.182a3.066,3.066,0,0,0-3.066-3.064h-9.232a3.067,3.067,0,0,0-3.069,3.066v7.18a3.066,3.066,0,0,0,3.072,3.063h0Z" transform="translate(296 -179)" fill="#1bacff" fill-rule="evenodd"/>
  </g>
</svg>
